<svg width="53" height="53" viewBox="0 0 53 53" fill="none" xmlns="http://www.w3.org/2000/svg">
<g clip-path="url(#clip0_245_1387)">
<path d="M26.5054 4.48518C27.1408 4.48159 27.6565 3.96396 27.6565 3.32779C27.6565 2.68941 27.1372 2.17004 26.4988 2.17004C25.8604 2.17004 25.3411 2.68941 25.3411 3.32779C25.3411 3.96385 25.8567 4.48147 26.4921 4.48518C26.4943 4.48518 26.4964 4.48506 26.4987 4.48506C26.5009 4.48495 26.5031 4.48518 26.5054 4.48518Z" fill="white"/>
<path d="M26.4985 14.5302C28.7091 14.5302 30.5212 12.7943 30.6446 10.6142C30.2091 10.686 29.7718 10.7224 29.3367 10.7224C26.994 10.7224 24.7189 9.70385 23.1619 7.90356C22.648 8.59508 22.3433 9.45112 22.3433 10.377C22.3433 12.6671 24.2073 14.5302 26.4985 14.5302Z" fill="white"/>
<path d="M24.4648 6.75527C25.9206 8.44847 28.1814 9.26768 30.3793 8.89848C29.7824 7.33518 28.2684 6.22144 26.4985 6.22144C25.76 6.22155 25.0665 6.41617 24.4648 6.75527Z" fill="white"/>
<path d="M26.4986 16.2669C29.7463 16.2669 32.3886 13.6247 32.3886 10.3768C32.3886 7.97163 30.9395 5.89962 28.8696 4.98512C29.1991 4.5152 29.3933 3.94385 29.3933 3.3277C29.3933 1.73176 28.0949 0.43335 26.4989 0.43335C24.903 0.43335 23.6046 1.73176 23.6046 3.3277C23.6046 3.94374 23.7986 4.51497 24.128 4.98478C22.0568 5.89905 20.6069 7.97129 20.6069 10.377C20.6067 13.6247 23.2498 16.2669 26.4986 16.2669ZM25.3411 3.32782C25.3411 2.68944 25.8604 2.17008 26.4988 2.17008C27.1372 2.17008 27.6565 2.68944 27.6565 3.32782C27.6565 3.964 27.1406 4.48162 26.5054 4.48521C26.5031 4.48521 26.5009 4.4851 26.4986 4.4851C26.4964 4.4851 26.4942 4.48521 26.492 4.48521C25.8567 4.48151 25.3411 3.96388 25.3411 3.32782ZM30.3793 8.89864C28.1815 9.26784 25.9206 8.44851 24.4649 6.75543C25.0666 6.41621 25.76 6.22171 26.4986 6.22171C28.2684 6.22159 29.7823 7.33534 30.3793 8.89864ZM29.3368 10.7224C29.7718 10.7224 30.2091 10.686 30.6447 10.6142C30.5213 12.7943 28.709 14.5302 26.4986 14.5302C24.2074 14.5302 22.3433 12.6671 22.3433 10.3768C22.3433 9.45099 22.6479 8.59496 23.162 7.90344C24.7189 9.70385 26.9941 10.7224 29.3368 10.7224Z" fill="black" fill-opacity="0.24"/>
<path d="M9.73388 41.4732L9.50661 50.8301H13.8033L13.0351 19.1919H10.2749L9.81816 38.0001C9.8067 38.4723 9.42024 38.8473 8.95055 38.8473C8.94349 38.8473 8.93654 38.8472 8.92959 38.8471L8.88745 40.5843C9.36664 40.5959 9.74557 40.9939 9.73388 41.4732Z" fill="white"/>
<path d="M7.76953 50.8299L7.99784 41.4309C8.00942 40.9515 8.40779 40.5684 8.88698 40.5841C8.88745 40.5841 8.92959 38.847 8.92959 38.847C8.4497 38.8354 8.07054 38.4373 8.08212 37.9578L8.53781 19.1918H8.38545C7.51726 19.1918 7.33144 20.0247 7.29509 20.2799C7.15743 21.2487 3.67321 45.5782 2.92114 50.8299H7.76953Z" fill="white"/>
<path d="M15.5405 50.8299H16.0085C16.3201 48.6538 17.2647 42.0575 18.2006 35.5217C16.8145 25.8411 16.0803 20.7128 16.0189 20.2798C15.9826 20.0245 15.7967 19.1917 14.9285 19.1917H14.7722L15.5405 50.8299Z" fill="white"/>
<path d="M42.7183 19.1918H39.9582L39.1899 50.8299H43.4866L42.7183 19.1918Z" fill="white"/>
<path d="M44.6076 19.1918H44.4553L45.2236 50.8299H50.072C49.3198 45.5781 45.8356 21.2487 45.6979 20.2799C45.6617 20.0247 45.4758 19.1918 44.6076 19.1918Z" fill="white"/>
<path d="M38.221 19.1918H38.0647C37.1964 19.1918 37.0106 20.0247 36.9743 20.2798C36.8984 20.8135 35.8238 28.3202 34.7944 35.5078C35.7309 42.0481 36.6768 48.6523 36.9886 50.8299H37.4527L38.221 19.1918Z" fill="white"/>
<path d="M47.6817 21.8841C49.1227 22.995 50.2017 24.5075 50.7879 26.2727C51.5643 28.6109 51.3836 31.1116 50.2792 33.314C50.0643 33.7428 50.2375 34.2644 50.6661 34.4794C50.791 34.5422 50.9239 34.5717 51.0546 34.5717C51.3728 34.5717 51.6792 34.3962 51.8315 34.0924C53.1439 31.4753 53.3584 28.5039 52.4359 25.7253C51.5579 23.0809 49.7483 20.9144 47.3197 19.5799C46.9612 18.2922 45.9195 17.455 44.6076 17.455H38.0646C36.6035 17.455 35.4743 18.4919 35.2548 20.0353C35.2001 20.4211 34.6223 24.4573 33.9173 29.382C33.2013 24.3816 32.6335 20.4147 32.5796 20.0354C32.3601 18.4919 31.2312 17.4551 29.7699 17.4551H23.2269C21.7657 17.4551 20.6366 18.4921 20.4172 20.0354C20.3633 20.4152 19.7945 24.3888 19.0776 29.3957C18.2352 23.5123 17.7854 20.3699 17.738 20.0356C17.5186 18.4922 16.3895 17.4552 14.9282 17.4552H8.38549C7.07447 17.4552 6.03296 18.2917 5.67383 19.5783C0.544807 22.3989 -1.48425 28.8161 1.16165 34.0925C1.31389 34.3963 1.62035 34.5718 1.93849 34.5718C2.06932 34.5718 2.20211 34.5422 2.32703 34.4795C2.75574 34.2647 2.92894 33.7429 2.71395 33.3142C0.707237 29.3122 1.89682 24.531 5.311 21.8878C4.34382 28.6465 1.09798 51.3115 1.06012 51.5752C1.02446 51.8245 1.09867 52.0769 1.26353 52.2672C1.42851 52.4574 1.66782 52.5667 1.91962 52.5667H16.7611H36.2319C36.2358 52.5667 51.0734 52.5667 51.0734 52.5667C51.3252 52.5667 51.5645 52.4574 51.7295 52.2672C51.8944 52.077 51.9685 51.8245 51.9329 51.5752C51.8953 51.3114 48.6481 28.6384 47.6817 21.8841ZM7.29513 20.28C7.33137 20.0247 7.5173 19.1918 8.38549 19.1918H8.53785L8.08216 37.9579C8.07047 38.4373 8.44975 38.8354 8.92905 38.847C8.93658 38.8472 8.94352 38.8472 8.95059 38.8472C9.4204 38.8472 9.80685 38.4722 9.8182 38L10.2749 19.1918H13.0351L13.8034 50.83H9.50665L9.73391 41.4731C9.74561 40.9938 9.36668 40.5959 8.88737 40.5841C8.40772 40.5684 8.00946 40.9517 7.99777 41.431L7.76946 50.83H2.92119C3.67325 45.5782 7.15748 21.2488 7.29513 20.28ZM16.0188 20.28C16.0803 20.713 16.8145 25.8413 18.2006 35.5219C17.2648 42.0575 16.3201 48.654 16.0084 50.8301H15.5404L14.7722 19.1919H14.9285C15.7967 19.1918 15.9825 20.0247 16.0188 20.28ZM23.227 19.1918H23.3794L22.6111 50.83H17.7627C18.5149 45.5781 21.999 21.2488 22.1367 20.2798C22.173 20.0247 22.3588 19.1918 23.227 19.1918ZM30.8603 20.28C30.9979 21.2488 34.4821 45.5782 35.2343 50.83H30.382L29.8534 29.0593C29.8418 28.5871 29.4555 28.2121 28.9858 28.2121C28.9785 28.2121 28.9714 28.2121 28.9642 28.2123C28.4847 28.224 28.1055 28.6221 28.1172 29.1015L28.6449 50.83H24.3483L25.1166 19.1918H27.8766L28.0329 25.6283C28.0445 26.1005 28.4309 26.4755 28.9005 26.4755C28.9078 26.4755 28.9149 26.4755 28.9221 26.4753C29.4016 26.4637 29.7808 26.0655 29.7691 25.5861L29.6138 19.1919H29.7701C30.6382 19.1918 30.8241 20.0247 30.8603 20.28ZM34.7945 35.5078C35.8237 28.3202 36.8985 20.8136 36.9744 20.2798C37.0106 20.0246 37.1965 19.1918 38.0648 19.1918H38.2211L37.4528 50.83H36.9886C36.6767 48.6525 35.731 42.0482 34.7945 35.5078ZM39.9581 19.1918H42.7182L43.4865 50.83H39.19L39.9581 19.1918ZM45.2237 50.83L44.4554 19.1918H44.6076C45.4758 19.1918 45.6616 20.0247 45.6979 20.28C45.8355 21.2488 49.3197 45.5782 50.0719 50.83H45.2237Z" fill="black" fill-opacity="0.24"/>
<path d="M7.50269 10.3768C7.50269 12.6669 9.36584 14.5302 11.6561 14.5302C13.9473 14.5302 15.8113 12.667 15.8113 10.3768C15.8113 8.08551 13.9473 6.22144 11.6561 6.22144C9.36584 6.22155 7.50269 8.08563 7.50269 10.3768Z" fill="white"/>
<path d="M11.6559 16.2668C14.9046 16.2668 17.5477 13.6246 17.5477 10.3768C17.5477 7.12799 14.9046 4.48486 11.6559 4.48486C8.40818 4.48486 5.76587 7.12799 5.76587 10.3768C5.76598 13.6246 8.40818 16.2668 11.6559 16.2668ZM15.8111 10.3768C15.8111 12.667 13.947 14.5302 11.6559 14.5302C9.36575 14.5302 7.50248 12.6671 7.50248 10.3768C7.50248 8.08555 9.36563 6.22147 11.6559 6.22147C13.947 6.22159 15.8111 8.08567 15.8111 10.3768Z" fill="black" fill-opacity="0.24"/>
<path d="M41.3372 14.5302C43.6284 14.5302 45.4925 12.667 45.4925 10.3768C45.4925 8.08551 43.6284 6.22144 41.3372 6.22144C39.0471 6.22144 37.1838 8.08551 37.1838 10.3768C37.1838 12.667 39.0471 14.5302 41.3372 14.5302Z" fill="white"/>
<path d="M41.337 16.2668C44.5859 16.2668 47.2289 13.6246 47.2289 10.3768C47.2289 7.12799 44.5859 4.48486 41.337 4.48486C38.0892 4.48486 35.447 7.12799 35.447 10.3768C35.447 13.6246 38.0893 16.2668 41.337 16.2668ZM37.1836 10.377C37.1836 8.08567 39.0469 6.22159 41.337 6.22159C43.6282 6.22159 45.4923 8.08567 45.4923 10.377C45.4923 12.6671 43.6282 14.5303 41.337 14.5303C39.0469 14.5302 37.1836 12.6671 37.1836 10.377Z" fill="black" fill-opacity="0.24"/>
<path d="M17.7627 50.8299H22.6111L23.3794 19.1918H23.227C22.3588 19.1918 22.173 20.0247 22.1366 20.2798C21.999 21.2487 18.5149 45.5782 17.7627 50.8299Z" fill="white"/>
<path d="M29.7689 25.5861C29.7806 26.0655 29.4013 26.4636 28.9219 26.4753L28.964 28.2126C28.9712 28.2123 28.9784 28.2123 28.9856 28.2123C29.4554 28.2123 29.8417 28.5873 29.8532 29.0596L30.3818 50.8302H35.2341C34.4819 45.5783 30.9977 21.249 30.86 20.2802C30.8238 20.0249 30.638 19.192 29.7698 19.192H29.6135L29.7689 25.5861Z" fill="white"/>
<path d="M28.9219 26.4751C28.9147 26.4753 28.9077 26.4753 28.9004 26.4753C28.4306 26.4753 28.0442 26.1004 28.0328 25.6281L27.8765 19.1917H25.1164L24.3481 50.8298H28.6448L28.1171 29.1013C28.1054 28.6219 28.4846 28.2239 28.9641 28.2122L28.9219 26.4751Z" fill="white"/>
</g>
<defs>
<clipPath id="clip0_245_1387">
<rect width="53" height="53" fill="white"/>
</clipPath>
</defs>
</svg>
