<svg width="54" height="54" viewBox="0 0 54 54" fill="none" xmlns="http://www.w3.org/2000/svg">
<g clip-path="url(#clip0_245_1415)">
<path d="M22.5944 36.4186C22.5956 35.7809 22.4719 35.1494 22.2305 34.5599C21.9891 33.9705 21.6347 33.4348 21.1876 32.9834C20.7404 32.5321 20.2093 32.174 19.6246 31.9297C19.0399 31.6854 18.4132 31.5597 17.7802 31.5597C17.1472 31.5597 16.5205 31.6854 15.9358 31.9297C15.3511 32.174 14.82 32.5321 14.3729 32.9834C13.9257 33.4348 13.5713 33.9705 13.3299 34.5599C13.0885 35.1494 12.9649 35.7809 12.9661 36.4186C12.9649 37.0562 13.0885 37.688 13.3299 38.2774C13.5713 38.8669 13.9257 39.4026 14.3729 39.8539C14.82 40.3053 15.3511 40.6632 15.9358 40.9075C16.5205 41.1518 17.1472 41.2777 17.7802 41.2777C18.4132 41.2777 19.0399 41.1518 19.6246 40.9075C20.2093 40.6632 20.7404 40.3053 21.1876 39.8539C21.6347 39.4026 21.9891 38.8669 22.2305 38.2774C22.4719 37.688 22.5956 37.0562 22.5944 36.4186Z" fill="white"/>
<path d="M48.323 18.8664L40.5762 21.1419V26.9151C40.1027 26.775 39.5975 26.7885 39.1321 26.9538C38.6667 27.1191 38.2647 27.4276 37.9832 27.8359C37.7017 28.2442 37.5549 28.7315 37.5636 29.2285C37.5723 29.7256 37.7361 30.2074 38.0318 30.6054C38.3275 31.0034 38.74 31.2976 39.2109 31.4462C39.6818 31.5948 40.1872 31.5902 40.6555 31.4333C41.1237 31.2763 41.531 30.9749 41.8197 30.5717C42.1083 30.1685 42.2637 29.6839 42.2637 29.1867V22.417L46.6355 21.1329V24.6651C46.162 24.5249 45.6568 24.5383 45.1914 24.7035C44.726 24.8688 44.324 25.1776 44.0425 25.5859C43.761 25.9942 43.6142 26.4814 43.6229 26.9785C43.6316 27.4755 43.7955 27.9572 44.0911 28.3552C44.3868 28.7532 44.7994 29.0474 45.2703 29.196C45.7412 29.3446 46.2466 29.34 46.7148 29.183C47.1831 29.0261 47.5904 28.7247 47.879 28.3214C48.1677 27.9182 48.323 27.4337 48.323 26.9365V18.8664Z" fill="white"/>
<path d="M24.6535 40.3497C24.3377 42.8937 23.9207 45.424 23.4035 47.9343C23.2687 48.5959 23.3999 49.2843 23.7683 49.8485C24.1367 50.4127 24.7122 50.8067 25.3686 50.944C26.0249 51.0813 26.7085 50.9506 27.2694 50.5807C27.8303 50.2108 28.2226 49.6318 28.3603 48.9708C29.7506 42.2236 30.4512 35.3506 30.4512 28.4595V17.349C30.4512 16.9988 30.5586 16.6569 30.7586 16.3705C30.9587 16.0841 31.2417 15.867 31.5689 15.7488L47.4705 10.003C48.3128 9.69834 49.0005 9.0693 49.3824 8.25394C49.7643 7.43857 49.8091 6.5037 49.5069 5.65507C49.2048 4.80644 48.5804 4.11353 47.7712 3.72857C46.9619 3.34361 46.034 3.29816 45.1915 3.6023L25.9584 10.5518C25.5901 10.6849 25.1873 10.6849 24.819 10.5518L8.8094 4.76702C7.96685 4.46258 7.03875 4.50779 6.22928 4.89271C5.41982 5.27763 4.79529 5.9708 4.49309 6.8196C4.19089 7.6684 4.23577 8.6032 4.61785 9.41866C4.99994 10.2341 5.68794 10.8635 6.53049 11.1679L19.2085 15.7488C19.5357 15.867 19.8187 16.0841 20.0187 16.3705C20.2188 16.6569 20.3262 16.9988 20.3262 17.349V22.0796C20.3262 22.3703 20.2522 22.6562 20.1113 22.9098C19.9703 23.1635 19.7672 23.3765 19.5212 23.5285C19.2753 23.6805 18.9948 23.7664 18.7064 23.7781C18.4181 23.7898 18.1316 23.7268 17.8744 23.5952L8.76782 18.9347C8.16933 18.6287 7.47471 18.5747 6.8367 18.7845C6.19869 18.9943 5.66951 19.4507 5.36553 20.0535C5.06154 20.6563 5.00763 21.356 5.21565 21.9989C5.42367 22.6417 5.87658 23.1749 6.47481 23.4814L19.1927 29.9903C21.0505 30.9411 22.5718 32.4462 23.5491 34.3002C24.5264 36.1542 24.9121 38.2667 24.6535 40.3497Z" fill="white"/>
</g>
<defs>
<clipPath id="clip0_245_1415">
<rect width="54" height="54" fill="white"/>
</clipPath>
</defs>
</svg>
