<svg width="61" height="62" viewBox="0 0 61 62" fill="none" xmlns="http://www.w3.org/2000/svg">
<path d="M27.6147 29.9702L18.0704 39.5563C17.6632 39.9457 17.0198 39.9392 16.6234 39.5389C16.2248 39.1407 16.2183 38.4946 16.6061 38.0855L26.1503 28.4994C26.5576 28.11 27.2009 28.1165 27.5974 28.5169C27.996 28.915 28.0025 29.5612 27.6147 29.9702ZM46.4759 17.5709L46.4499 17.6492C46.4369 17.6862 37.408 44.4775 36.8319 46.5857C36.4571 47.9629 35.5971 48.1696 35.1184 48.1696C34.2151 48.1587 33.4678 47.4603 33.392 46.5574L31.1391 35.8769L31.137 35.8617C30.8879 34.5475 30.1882 33.364 29.1571 32.5176L27.9808 31.5538L19.8401 39.7302C20.8084 40.0631 22.0994 40.5765 22.5998 41.0921C23.9754 42.5085 24.8376 45.2412 25.6715 47.8844C26.0528 49.1768 26.499 50.4496 27.0124 51.6963C28.7974 55.7104 31.2148 57.5812 34.6247 57.5812H34.6268C36.206 57.5812 37.7397 57.046 38.9809 56.0604C40.3391 54.9573 41.2641 53.4039 41.5912 51.6786L48.5967 17.3746C48.6682 17.0243 48.9736 16.7719 49.3311 16.7719H50.0567L50.0546 15.2141H49.331C47.2515 15.2141 46.7466 16.7463 46.4759 17.5709ZM53.0029 15.5345H51.4303V16.4722H53.0051L53.0029 16.47C53.1307 16.4744 53.252 16.4287 53.343 16.3395C53.4361 16.2503 53.486 16.1306 53.486 16.0022C53.486 15.876 53.4361 15.7542 53.343 15.665C53.252 15.5758 53.1307 15.5301 53.0029 15.5345ZM20.094 23.3928L18.9741 16.6545L11.8947 21.7804L13.2529 29.7652V29.7674C13.4197 30.1808 13.4804 30.629 13.4327 31.0728C13.3287 31.9453 13.006 32.7764 12.4904 33.4878C11.611 34.7475 10.4044 35.4807 9.37976 35.4807C9.00718 35.4872 8.64111 35.3763 8.3335 35.1631C7.20927 34.3733 7.27205 32.3978 8.47864 30.6659C9.38194 29.3714 10.6297 28.636 11.6716 28.6752L9.94513 18.5193C9.90181 18.2583 10.008 17.995 10.2224 17.8427L18.5622 11.8246C18.755 11.6876 19.0063 11.6571 19.2251 11.7485C19.4438 11.8398 19.602 12.0378 19.641 12.2728L21.6404 24.3174C21.87 24.7721 21.961 25.2856 21.9003 25.7903C21.7985 26.6627 21.4736 27.4939 20.958 28.2053C20.0786 29.465 18.872 30.1982 17.8474 30.1982C17.4748 30.2047 17.1087 30.0937 16.8011 29.8805C15.6769 29.0907 15.7418 27.1153 16.9463 25.3834C17.8366 24.1106 19.0628 23.3754 20.094 23.3928ZM18.7227 15.1362L18.4671 13.5959L11.3728 18.7131L11.6371 20.2687L18.7227 15.1362ZM25.308 26.4495C26.2827 26.4103 27.2229 26.0774 28.0049 25.4944C28.7306 25.0048 29.3198 24.3348 29.714 23.5493C29.8916 23.1838 29.9869 22.7813 29.9913 22.3744L31.7719 12.4297C32.1661 12.9779 32.6405 13.461 33.1821 13.8656C34.7417 14.9991 33.9814 17.61 33.9727 17.636V17.6382C33.8623 18.0015 34.0659 18.3867 34.4276 18.4998C34.4948 18.5194 34.5619 18.5302 34.6291 18.5302C34.9324 18.5302 35.1988 18.3323 35.2876 18.0429C35.3331 17.8971 36.3469 14.4639 33.9901 12.7495H33.9879C33.1908 12.1142 32.5561 11.2961 32.1402 10.3627L32.1922 10.069V10.0712C32.2593 9.6948 32.0102 9.33582 31.6376 9.26837C31.2629 9.20092 30.9055 9.45112 30.8405 9.82751L28.8931 20.7013C27.9269 20.2945 26.4908 20.5555 25.1954 21.4672C23.4732 22.679 22.7389 24.5131 23.5274 25.6445C23.9498 26.1927 24.617 26.493 25.3058 26.4495L25.308 26.4495ZM42.5726 19.2044L44.2731 19.807C44.4399 19.3088 44.5893 18.8693 44.7128 18.4994L43.0275 17.9033L43.0297 17.9011C42.6722 17.7749 42.2801 17.9642 42.1524 18.3232C42.0267 18.6822 42.2152 19.076 42.5726 19.2044ZM39.7652 27.9639L41.3444 28.523C41.4917 28.0814 41.6369 27.6462 41.782 27.2154L40.2223 26.6628H40.2245C39.8671 26.5366 39.475 26.7259 39.3472 27.0849C39.2216 27.4439 39.4078 27.8377 39.7652 27.9639ZM41.1689 23.5842L42.8065 24.1652C42.9582 23.7148 43.1033 23.2797 43.2463 22.8576L41.6259 22.2854V22.2832C41.2685 22.157 40.8764 22.3463 40.7487 22.7053C40.623 23.0643 40.8115 23.4581 41.1689 23.5842ZM38.3637 32.3454L39.8865 32.885C40.0317 32.4499 40.1768 32.0126 40.3241 31.5752L38.8229 31.0422C38.4633 30.916 38.0712 31.1053 37.9456 31.4643C37.82 31.8232 38.0085 32.2171 38.3659 32.3454L38.3637 32.3454ZM36.96 36.7251L38.4308 37.2473L38.8662 35.9375L37.4149 35.424H37.4171C37.0596 35.2978 36.6675 35.4871 36.5419 35.8461C36.4141 36.2073 36.6026 36.6011 36.96 36.7272L36.96 36.7251Z" fill="white"/>
</svg>
