<svg width="48" height="53" viewBox="0 0 48 53" fill="none" xmlns="http://www.w3.org/2000/svg">
<g clip-path="url(#clip0_245_1368)">
<path d="M7.21293 0.0454826C3.97702 0.397436 1.23662 2.58783 0.318851 5.55665C0.0689408 6.35994 0 6.84439 0 7.76361C0 8.24806 0.021544 8.72837 0.0517056 8.92298C0.349013 10.6869 1.1763 12.2313 2.45601 13.4156C2.83088 13.7592 3.32208 14.136 3.64524 14.3224L3.80467 14.4135L4.24847 14.0449C4.83447 13.5605 6.10557 12.3059 6.79928 11.5316C9.69048 8.29775 12.3662 4.38072 13.1591 2.21517L13.2926 1.84251L13.1074 1.68517C12.8575 1.474 12.3016 1.12205 11.8578 0.898452C10.4876 0.194545 8.76409 -0.124283 7.21293 0.0454826Z" fill="white"/>
<path d="M13.9606 2.52998C13.6159 3.62724 13.4435 4.04545 12.9739 4.95224C11.5778 7.62709 8.75988 11.1839 5.41194 14.5005L4.92505 14.9808L5.26114 15.1051C6.31679 15.4943 7.66975 15.6765 8.76419 15.5729C9.37173 15.515 10.1301 15.3742 10.2593 15.2955C10.3843 15.2169 11.5821 13.9333 12.1466 13.2708C13.6417 11.511 15.1498 9.33302 16.003 7.70162C16.1839 7.35795 16.1839 7.34967 16.1581 7.03912C16.0245 5.63545 15.3997 4.14068 14.4733 3.00201C14.1329 2.58381 13.9865 2.45131 13.9606 2.52998Z" fill="white"/>
<path d="M23.0823 7.49041C22.8023 7.5815 22.5394 7.75541 22.3843 7.94587C22.3197 8.02869 21.7078 8.93134 21.027 9.94994C20.2213 11.1631 19.6655 11.9499 19.4285 12.219C18.8123 12.927 18.7649 13.101 19.1225 13.4281C19.4888 13.7717 20.0619 14.0657 21.6432 14.7158C22.4576 15.0553 23.259 15.3907 23.427 15.4694C23.9613 15.7137 24.4137 15.6474 24.8015 15.2706C24.9825 15.0967 27.5979 11.2087 27.8392 10.7615C28.0848 10.306 27.9728 9.92509 27.4902 9.569C27.055 9.24603 24.3103 7.5815 24.0777 7.49869C23.7847 7.39103 23.3883 7.38689 23.0823 7.49041Z" fill="white"/>
<path d="M16.8647 7.8962C16.8647 7.95417 16.2399 9.03487 15.8478 9.65597C14.5681 11.689 12.9609 13.7428 11.3322 15.4363C11.1469 15.6267 11.0047 15.8007 11.0133 15.8172C11.0219 15.8379 11.539 16.1567 12.1681 16.5253L13.3099 17.196L13.3831 17.0967C13.4262 17.0428 13.6632 16.7282 13.9088 16.401C14.6155 15.4611 15.4815 14.4135 15.7961 14.1154C16.3605 13.573 16.9293 13.2914 17.511 13.2625C17.8643 13.2417 18.041 13.2749 18.4331 13.4364C18.502 13.4653 18.5106 13.4571 18.4805 13.3287C18.3641 12.8194 18.5149 12.4923 19.2259 11.7221C19.5706 11.3495 19.9239 10.8816 19.9239 10.7988C19.9239 10.7781 19.9842 10.687 20.0618 10.5959C20.1609 10.48 20.1867 10.422 20.148 10.3971C20.1221 10.3806 19.3896 9.80917 18.5235 9.13011C17.6532 8.4469 16.925 7.87964 16.9034 7.8755C16.8819 7.86722 16.8647 7.8755 16.8647 7.8962Z" fill="white"/>
<path d="M29.1577 10.3722C28.8777 10.455 28.5588 10.6704 28.3994 10.8815C28.3175 10.9892 27.7918 11.8215 27.2274 12.7324C26.6629 13.6433 26.0511 14.6164 25.8615 14.8979C25.3014 15.7343 25.2453 15.9165 25.4953 16.1691C25.6461 16.3264 25.9908 16.4838 27.3222 16.9972C28.2357 17.3492 28.5588 17.5107 28.826 17.7343C29.2008 18.0531 29.2094 18.1318 28.9509 19.1959C28.6924 20.26 28.6665 20.6741 28.8432 21.0633C28.9595 21.3159 29.0759 21.2993 29.4421 20.9764C29.6274 20.8149 30.1703 20.1648 30.5409 19.6597C30.7003 19.4485 31.0493 19.0427 31.3208 18.757C31.8033 18.256 31.8421 18.198 33.027 16.2975C33.6949 15.2292 34.2809 14.2603 34.3283 14.1443C34.3929 13.9746 34.4059 13.8586 34.3929 13.5812C34.3714 13.192 34.2637 12.927 34.0094 12.6496C33.85 12.4757 30.4461 10.4965 30.1143 10.3847C29.8601 10.2977 29.4163 10.2936 29.1577 10.3722Z" fill="white"/>
<path d="M17.162 13.8007C16.7311 13.9746 16.4122 14.1941 15.977 14.6247C15.4169 15.1795 15.0679 15.5977 14.5293 16.3679C14.288 16.7157 13.9433 17.1836 13.7623 17.4113C12.7713 18.6659 10.5393 22.4712 9.97489 23.8666C9.69913 24.5498 9.67758 24.6864 9.79392 25.0425C9.99643 25.6387 10.5221 26.3882 12.4266 28.798C14.4603 31.3694 15.2273 32.4294 16.0675 33.8123C16.563 34.6322 17.4205 35.8537 18.3296 37.042C19.6395 38.748 19.8334 39.013 19.9928 39.3194L20.148 39.6134L19.8377 41.2862C19.3077 44.1556 19.0277 45.7912 18.739 47.7207C18.3857 50.0891 18.3167 50.8055 18.3383 51.8199C18.3512 52.5155 18.3641 52.6273 18.446 52.8012L18.5408 53L20.6866 52.9959C21.8672 52.9959 25.59 52.9793 28.9638 52.9627C34.953 52.9337 35.0952 52.9296 35.177 52.8509C35.246 52.7847 35.2675 52.6895 35.2891 52.3375C35.302 52.0973 35.3494 51.6957 35.3968 51.4473C35.5476 50.6398 35.5691 50.1098 35.5605 47.0996C35.5519 44.1929 35.5648 43.7209 35.7156 41.8617C35.8449 40.3048 35.8234 40.3628 36.4568 39.7003C36.7282 39.4187 36.9393 39.1413 37.1763 38.748C37.6675 37.9488 37.6977 37.9074 38.1717 37.452C38.4474 37.187 38.6499 36.9468 38.7404 36.7895C38.8998 36.4996 39.0722 35.9448 39.3049 34.9676C39.6237 33.655 39.6668 33.448 39.6323 33.419C39.5806 33.3776 37.1505 31.9118 36.4955 31.5226C36.2112 31.357 35.9569 31.2203 35.9311 31.2203C35.9052 31.2203 35.8277 31.2741 35.7587 31.3445C35.6381 31.4646 35.5088 31.5019 35.4097 31.4356C35.3839 31.4191 35.2934 31.299 35.2072 31.1706C35.0952 31.0009 34.9702 30.8849 34.7591 30.7483C34.4833 30.5744 33.2639 29.5061 32.4927 28.7649C31.9239 28.2184 31.5792 28.0445 30.6528 27.825C30.3814 27.7629 29.9505 27.6511 29.6919 27.5807C28.3433 27.1998 24.7368 26.5 24.5688 26.587C24.4654 26.6408 24.4697 26.794 24.5774 26.9927C24.6937 27.2163 26.4517 29.3156 28.5156 31.6965C28.6708 31.8745 28.8 32.0484 28.8 32.0816C28.8 32.1105 28.9724 32.5412 29.1835 33.0339C29.3946 33.5266 29.6575 34.1684 29.7652 34.4583C30.2779 35.8288 30.3684 36.0566 30.502 36.3298C30.5796 36.4913 30.6743 36.7356 30.7174 36.8723C30.8208 37.2159 31.088 37.7004 31.3207 37.9571C31.4284 38.0772 31.6611 38.2594 31.842 38.367C32.1221 38.5327 32.2471 38.6486 32.2471 38.7314C32.2471 38.748 32.0532 38.897 31.8119 39.0668C31.5103 39.2821 31.3293 39.3856 31.2086 39.4022C31.0061 39.4353 30.6873 39.6258 30.5623 39.7997C30.3512 40.0812 30.3598 42.0149 30.5925 46.7062C30.67 48.288 30.6657 48.6192 30.5537 48.7227C30.4805 48.7931 30.4718 48.7931 30.4115 48.7186C30.3684 48.6565 30.3512 48.5116 30.3512 48.1803C30.3512 47.7455 30.2521 46.2798 30.1961 45.8781C30.1831 45.7746 30.1401 45.609 30.1099 45.5096C30.0625 45.3812 30.041 45.0748 30.0323 44.4952C30.0194 43.8989 29.9849 43.4269 29.9031 42.8348C29.7695 41.8534 29.567 40.6444 29.4507 40.1351C29.4076 39.9363 29.3559 39.6092 29.3429 39.4105C29.3128 39.0005 29.2697 38.8639 29.1577 38.8142C29.1146 38.7977 28.6018 38.7728 28.0158 38.7604C27.0851 38.7397 26.9429 38.7273 26.874 38.6652C26.7792 38.5741 26.7964 38.5616 27.1024 38.4871C27.7444 38.3256 28.8948 37.6466 29.5885 37.0172C30.0065 36.6362 30.1228 36.4665 30.0754 36.305C29.916 35.6922 24.586 28.0652 22.9487 26.1025C22.7505 25.8623 22.5178 25.6263 22.4273 25.5725C22.2076 25.44 21.7939 25.2868 21.0571 25.0632C20.5788 24.9224 20.3117 24.8148 19.9885 24.6326C19.4758 24.3427 19.2129 24.2516 18.5752 24.1357C18.1013 24.0529 17.8341 23.9577 17.7307 23.8334C17.6445 23.7341 17.7049 23.6968 18.0625 23.6181C18.3814 23.5477 18.4029 23.5353 18.6959 23.2496C19.4284 22.5291 19.8593 21.3035 19.6051 20.641C19.5103 20.3967 19.493 20.1069 19.5663 20.0365C19.6094 19.9951 19.6568 20.0116 19.7903 20.0945C20.1393 20.3139 20.8675 20.9557 21.7207 21.788L22.5867 22.6368L22.8884 22.6616C23.47 22.7155 24.4309 22.5788 25.4305 22.2973C26.4302 22.0198 27.5591 21.5851 27.8004 21.3822C28.1278 21.113 28.4295 20.3387 28.5372 19.4816C28.5889 19.0841 28.5975 18.4216 28.5587 18.2767C28.5458 18.2312 28.4122 18.1152 28.2657 18.02C27.9253 17.8047 26.5121 17.1298 25.4822 16.6867C25.0428 16.5004 24.5989 16.3099 24.4912 16.2644C23.483 15.8296 20.9709 14.8317 19.9756 14.4756C19.6998 14.3721 19.437 14.2769 19.3896 14.2603C19.3164 14.2313 19.3164 14.2396 19.381 14.3638C19.4198 14.4342 19.437 14.4922 19.4155 14.4922C19.3939 14.4922 19.2129 14.3969 19.0147 14.281C18.8165 14.1609 18.5968 14.0326 18.5235 13.9912C18.3857 13.9125 17.6316 13.7055 17.4894 13.7055C17.442 13.7055 17.2955 13.751 17.162 13.8007Z" fill="white"/>
<path d="M34.6599 15.4487C34.3841 15.5025 34.0566 15.664 33.8757 15.8462C33.6387 16.0822 27.8175 24.1109 27.6925 24.3759C27.5461 24.6823 27.5417 25.1295 27.6796 25.4773C27.8606 25.9327 28.02 26.0487 29.3816 26.6656C30.0452 26.9679 30.7733 27.3074 30.9974 27.4275L31.4067 27.6387H31.8592C32.2642 27.6387 32.3331 27.6262 32.527 27.5269C32.6477 27.4689 32.8114 27.3571 32.9019 27.2784C33.057 27.1418 38.5938 20.4133 38.8092 20.1027C38.9687 19.8667 39.0721 19.4568 39.0376 19.1752C38.973 18.6659 38.917 18.5955 37.3141 17.0677C35.7759 15.6019 35.6811 15.5273 35.2243 15.4445C34.9615 15.399 34.9313 15.399 34.6599 15.4487Z" fill="white"/>
<path d="M24.8144 15.8586C24.8015 15.8793 24.8101 15.9 24.8317 15.9C24.8575 15.9 24.8791 15.8793 24.8791 15.8586C24.8791 15.8338 24.8704 15.8172 24.8618 15.8172C24.8489 15.8172 24.8273 15.8338 24.8144 15.8586Z" fill="white"/>
<path d="M39.5591 20.4174C39.4514 20.5168 37.952 22.231 36.2198 24.2268C34.0353 26.7485 33.0615 27.8995 33.0227 28.0155C32.9494 28.2308 32.9581 28.5331 33.0442 28.6945C33.1476 28.885 34.9573 30.6696 35.134 30.7524C35.3624 30.8642 35.7157 30.8477 35.9613 30.7235C36.0949 30.6572 37.3875 29.4813 39.7056 27.3323C42.5667 24.674 43.2647 24.0074 43.3336 23.8542C43.4457 23.6057 43.4457 23.2952 43.3293 23.084C43.2776 22.9929 42.6787 22.3759 41.9979 21.7135C40.632 20.3884 40.4985 20.2891 39.9986 20.2559C39.753 20.2394 39.7487 20.2394 39.5591 20.4174Z" fill="white"/>
<path d="M27.9383 22.1731C27.5979 22.2683 24.7885 23.0136 24.2542 23.1502C23.7199 23.2827 23.0478 23.349 22.7505 23.2952C22.5436 23.2579 22.367 23.1047 22.1817 22.8024C21.9792 22.4629 21.837 22.3263 21.6646 22.2931C21.3717 22.2393 20.9839 22.4629 20.9322 22.7113C20.8977 22.8894 20.9796 23.1337 21.126 23.2869C21.6302 23.8127 24.056 25.262 25.0169 25.6098C25.3099 25.7133 25.4004 25.676 25.6675 25.3282C25.7968 25.1667 26.4173 24.4504 27.0506 23.7465C27.6883 23.0384 28.2313 22.4008 28.2657 22.3263C28.3691 22.1027 28.2959 22.0695 27.9383 22.1731Z" fill="white"/>
<path d="M40.6448 27.0838C40.2571 27.4317 39.5892 28.0403 39.1626 28.442C38.7361 28.8436 38.2707 29.2742 38.1285 29.3985C37.9863 29.5227 37.6158 29.8788 37.3098 30.1893C36.9996 30.4999 36.6808 30.8021 36.5989 30.8601C36.517 30.9181 36.461 30.976 36.4696 30.9843C36.4912 31.005 40.0201 33.0878 41.6186 34.0277C42.2176 34.3796 42.6226 34.5908 42.7217 34.6032C43.4757 34.7067 44.9881 33.3113 45.7335 31.8249C46.0782 31.1334 46.2161 30.4667 46.0696 30.1603C46.0222 30.061 45.2682 29.444 43.6438 28.1728C42.265 27.0921 41.429 26.4586 41.386 26.4586C41.3644 26.4586 41.0283 26.7402 40.6448 27.0838Z" fill="white"/>
<path d="M46.3585 31.7047C46.0181 32.6364 45.3631 33.539 44.5488 34.1932C44.3376 34.363 44.1567 34.5162 44.1481 34.5328C44.1351 34.57 45.2813 35.2988 45.445 35.3609C45.6389 35.4272 46.0353 35.4106 46.2292 35.3236C46.4705 35.216 46.6342 35.0338 47.2504 34.1808C47.9441 33.2202 47.9484 33.2119 47.9527 32.8517C47.9527 32.4004 47.8364 32.2472 47.1125 31.771C46.7937 31.5598 46.5179 31.39 46.505 31.3859C46.4877 31.3859 46.4231 31.5308 46.3585 31.7047Z" fill="white"/>
</g>
<defs>
<clipPath id="clip0_245_1368">
<rect width="48" height="53" fill="white"/>
</clipPath>
</defs>
</svg>