<svg width="62" height="64" viewBox="0 0 62 64" fill="none" xmlns="http://www.w3.org/2000/svg">
<path d="M41.6975 3.85249C40.9877 3.89127 40.2849 4.04824 39.605 4.33749C36.9892 5.45065 35.4483 8.19674 34.9284 11.425C34.4476 14.41 34.7964 17.9067 36.0013 21.4175L30.1185 27.49C26.9788 24.8257 22.4841 22.4013 18.3361 26.685C17.0477 28.0149 16.3002 29.5605 15.6406 30.925C15.126 31.9887 14.6432 32.9945 14.0034 33.655C13.0151 34.6739 12.1472 34.8747 10.9494 35.1525C9.39318 35.5135 7.45898 35.9618 5.10298 38.3925C-1.44546 45.1522 5.95606 52.7919 8.41126 55.325C10.1311 57.1004 14.3291 61.435 18.9779 61.435C20.9185 61.435 22.938 60.6772 24.8873 58.665C27.2482 56.2279 27.6551 54.2461 27.9824 52.6525C28.2329 51.4365 28.4123 50.5563 29.3944 49.5425C30.0342 48.8833 31.0098 48.3849 32.0415 47.8575C33.3671 47.1791 34.8679 46.4112 36.1563 45.08C40.3052 40.7991 37.9585 36.1628 35.3788 32.9225L39.7648 28.395C40.6104 29.444 41.5241 30.3545 42.4822 31.0975C44.9943 33.0456 47.9409 33.8957 50.5567 32.7825C53.7426 31.4273 55.291 27.7285 55.4102 23.505C56.4247 22.6616 57.3789 21.771 58.4593 20.6975C58.4974 20.6577 58.5687 20.6668 58.6046 20.625C58.6276 20.5983 58.6213 20.5548 58.6434 20.5275C58.6747 20.4963 58.699 20.479 58.7306 20.4475C58.8714 20.3102 58.9792 20.1408 59.0452 19.9529C59.1113 19.7649 59.1337 19.5635 59.1108 19.365C59.2529 18.9808 59.5171 18.6603 59.5637 18.2375C59.761 16.4469 59.231 14.3472 58.0137 12.1025C56.2879 8.91784 54.0395 6.74344 51.804 5.66499C51.5106 5.52322 51.1466 5.47069 50.8062 5.37999C50.5897 5.20261 50.3221 5.10494 50.0457 5.10249C49.7955 5.10099 49.5506 5.17769 49.3434 5.32249L49.3409 5.32499C48.9582 5.37225 48.5761 5.34781 48.1978 5.54999L48.3504 5.47999L47.401 5.82999C45.6073 4.51275 43.6225 3.74733 41.6975 3.85249ZM41.867 6.40749C42.3288 6.38456 42.8105 6.43723 43.3081 6.56749C43.5776 6.63807 43.8759 6.91192 44.1533 7.02749L42.1819 7.75499L41.5328 7.99249L41.3923 8.65999C41.3906 8.66914 41.389 8.67831 41.3875 8.68749C41.2696 9.24486 41.174 9.79855 41.1017 10.345C41.0295 10.8914 40.98 11.4294 40.9516 11.9625C40.923 12.4965 40.9163 13.0217 40.9298 13.54C40.9432 14.0575 40.9781 14.5656 41.0315 15.065V15.0675C41.2986 17.5647 42.0533 19.8193 43.1773 21.6875C43.4021 22.0611 43.6408 22.4186 43.8941 22.76C45.4145 24.809 47.4315 26.2555 49.7406 26.8425L50.2007 26.96L50.5858 26.7475C50.5972 26.7418 50.6085 26.736 50.6197 26.73C51.3035 26.3545 51.87 25.9987 52.4385 25.6425C51.9514 27.9417 51.0743 29.793 49.6122 30.415C48.017 31.0938 46.0308 30.6469 43.9716 29.05C42.9594 28.265 41.9631 27.2071 41.0557 25.9325L40.9007 25.71C40.6817 25.3928 40.4709 25.0663 40.2686 24.7325C40.181 24.5877 40.0994 24.4341 40.0143 24.285C39.9011 24.0869 39.785 23.8907 39.6777 23.6875C39.5502 23.4457 39.4299 23.1941 39.3095 22.9425C39.2449 22.8077 39.1754 22.6767 39.1134 22.54C38.9362 22.149 38.7677 21.7444 38.6096 21.3325C38.6051 21.3208 38.602 21.3092 38.5975 21.2975L38.5951 21.2875C37.3026 17.8969 36.947 14.4988 37.3745 11.845C37.8038 9.17949 38.9543 7.38384 40.5495 6.70499C40.9633 6.52897 41.4052 6.43043 41.867 6.40749ZM48.9026 7.99749C48.9932 11.4042 49.471 14.5742 50.4938 17C51.0886 18.4109 51.8359 19.6051 52.8042 20.4725C53.1957 20.8232 53.6562 21.0666 54.1241 21.285C52.9929 22.2479 51.6668 23.1716 49.9513 24.1475C49.1614 23.892 48.4044 23.4864 47.7062 22.95C47.2406 22.5923 46.801 22.1776 46.3935 21.7075C45.1711 20.2971 44.2409 18.4008 43.79 16.155C43.7149 15.7807 43.6536 15.3982 43.6059 15.005C43.4153 13.4322 43.4521 11.7132 43.7706 9.88749L48.9026 7.99749ZM51.4116 8.47749C52.9003 9.38988 54.532 10.9232 55.8485 13.3525C56.883 15.2601 57.2087 16.9452 57.0982 17.9475C57.0498 18.387 56.9217 18.6267 56.7955 18.805C56.7153 18.8849 56.658 18.9276 56.5799 19.005C56.4686 19.0927 56.3774 19.1851 56.1464 19.2025C55.5255 19.2494 55.01 19.0602 54.4293 18.54C53.8486 18.0198 53.2593 17.143 52.7679 15.9775C51.9748 14.0963 51.5482 11.3974 51.4116 8.47749ZM20.4601 38.4C22.857 38.4 24.8001 40.4058 24.8001 42.88C24.8001 45.3542 22.857 47.36 20.4601 47.36C18.0632 47.36 16.1201 45.3542 16.1201 42.88C16.1201 40.4058 18.0632 38.4 20.4601 38.4Z" fill="white"/>
</svg>
