<svg width="46" height="46" viewBox="0 0 46 46" fill="none" xmlns="http://www.w3.org/2000/svg">
<circle cx="23" cy="23" r="22" fill="#15AB90" stroke="#15AB90" stroke-width="2"/>
<path d="M22.0143 21.0143H12.9857C12.1655 21.0143 11.5 21.6797 11.5 22.5C11.5 23.3203 12.1655 23.9857 12.9857 23.9857H22.0143V33.0143C22.0143 33.8345 22.6797 34.5 23.5 34.5C24.3203 34.5 24.9857 33.8345 24.9857 33.0143V23.9857H34.0143C34.8345 23.9857 35.5 23.3203 35.5 22.5C35.5 21.6797 34.8345 21.0143 34.0143 21.0143H24.9857V11.9857C24.9857 11.1655 24.3203 10.5 23.5 10.5C22.6797 10.5 22.0143 11.1655 22.0143 11.9857V21.0143Z" fill="white" stroke="white"/>
</svg>
