<svg width="19" height="17" viewBox="0 0 19 17" fill="none" xmlns="http://www.w3.org/2000/svg">
<path d="M9.40896 10.8655L11.8663 8.4129L11.875 8.49998C11.875 9.8094 10.8094 10.875 9.5 10.875L9.40896 10.8655ZM15.7803 4.50681L13.1884 7.09398C13.3562 7.53256 13.4583 8.0036 13.4583 8.49998C13.4583 10.6826 11.6826 12.4583 9.5 12.4583C9.00046 12.4583 8.52704 12.3554 8.08687 12.186L6.20508 14.0638C7.21525 14.5293 8.31963 14.8333 9.51188 14.8333C15.6338 14.8333 19 8.14452 19 8.14452C19 8.14452 17.8798 6.18277 15.7803 4.50681ZM16.9132 1.70748L2.17313 16.4166L1.07904 15.2909L3.81425 12.562C1.42183 10.6224 0 8.14452 0 8.14452C0 8.14452 3.51975 2.16665 9.51188 2.16665C10.9567 2.16665 12.2479 2.5039 13.38 3.01769L15.8191 0.583313L16.9132 1.70748ZM6.02696 10.3541L7.2295 9.15469C7.16854 8.94569 7.125 8.72877 7.125 8.49998C7.125 7.19056 8.19058 6.12498 9.5 6.12498C9.73038 6.12498 9.94888 6.16852 10.1595 6.23106L11.3612 5.03169C10.8039 4.72927 10.1769 4.54165 9.5 4.54165C7.31738 4.54165 5.54167 6.31735 5.54167 8.49998C5.54167 9.17448 5.72771 9.7991 6.02696 10.3541Z" fill="black"/>
</svg>
