<svg width="40" height="40" viewBox="0 0 40 40" fill="none" xmlns="http://www.w3.org/2000/svg">
<rect x="0.483871" y="0.483871" width="39.0323" height="39.0323" rx="19.5161" stroke="#171621" stroke-opacity="0.12" stroke-width="0.967742"/>
<path fill-rule="evenodd" clip-rule="evenodd" d="M13.6245 12.424C11.9655 13.182 10.7505 14.986 10.7505 17.137C10.7505 19.334 11.6505 21.028 12.9385 22.48C14.0015 23.676 15.2875 24.668 16.5415 25.6341C16.8395 25.8641 17.1355 26.0931 17.4265 26.3221C17.9525 26.7371 18.4215 27.1001 18.8745 27.3651C19.3265 27.6291 19.6905 27.7501 20.0005 27.7501C20.3105 27.7501 20.6745 27.6301 21.1265 27.3651C21.5795 27.1001 22.0485 26.7371 22.5745 26.3221C22.8645 26.0921 23.1615 25.8641 23.4595 25.6341C24.7135 24.668 25.9995 23.676 27.0625 22.48C28.3515 21.028 29.2505 19.334 29.2505 17.137C29.2505 14.987 28.0355 13.182 26.3765 12.424C24.9025 11.751 22.9665 11.856 21.0725 13.512L22.5305 14.97C22.6022 15.0391 22.6593 15.1219 22.6987 15.2133C22.738 15.3048 22.7588 15.4032 22.7597 15.5028C22.7606 15.6024 22.7417 15.7012 22.704 15.7934C22.6663 15.8856 22.6107 15.9693 22.5403 16.0398C22.4699 16.1102 22.3862 16.166 22.294 16.2037C22.2019 16.2415 22.1031 16.2605 22.0035 16.2597C21.904 16.2589 21.8055 16.2382 21.714 16.1989C21.6225 16.1597 21.5397 16.1026 21.4705 16.031L19.4705 14.032L19.4605 14.022C17.4025 11.882 15.2365 11.687 13.6245 12.424ZM20.0005 12.46C17.6885 10.3899 15.0995 10.0999 13.0005 11.059C10.7865 12.074 9.25049 14.426 9.25049 17.138C9.25049 19.803 10.3605 21.837 11.8175 23.477C12.9835 24.79 14.4105 25.8891 15.6715 26.8591C15.9575 27.0791 16.2345 27.2931 16.4975 27.5011C17.0105 27.9051 17.5605 28.3351 18.1175 28.6611C18.6745 28.9861 19.3105 29.2511 20.0005 29.2511C20.6905 29.2511 21.3265 28.9861 21.8835 28.6611C22.4415 28.3351 22.9905 27.9051 23.5035 27.5011C23.7774 27.2852 24.0527 27.0712 24.3295 26.8591C25.5895 25.8891 27.0175 24.789 28.1835 23.477C29.6405 21.837 30.7505 19.803 30.7505 17.138C30.7505 14.426 29.2155 12.074 27.0005 11.061C24.9015 10.1009 22.3125 10.3909 20.0005 12.46Z" fill="#262626"/>
</svg>
