<svg width="232" height="30" viewBox="0 0 232 30" fill="none" xmlns="http://www.w3.org/2000/svg">
<rect x="202" width="30" height="30" rx="15" fill="#15AB90"/>
<rect x="202.363" y="0.362903" width="29.2742" height="29.2742" rx="14.6371" stroke="#171621" stroke-opacity="0.12" stroke-width="0.725806"/>
<path fill-rule="evenodd" clip-rule="evenodd" d="M14.4539 2.06332e-07C13.9352 -0.00017975 13.4228 0.117357 12.9528 0.344319C12.4828 0.57128 12.0666 0.902139 11.7338 1.31355C11.4009 1.72497 11.1593 2.20691 11.0262 2.72539C10.893 3.24388 10.8715 3.78626 10.9631 4.31429L5.80312 8.05093C5.77732 8.06939 5.75255 8.08935 5.72894 8.11073C5.20546 7.68751 4.57752 7.42495 3.91672 7.35299C3.25593 7.28102 2.58888 7.40254 1.99163 7.7037C1.39439 8.00486 0.891 8.47352 0.538858 9.05626C0.186717 9.63899 0 10.3123 0 10.9995C0 11.6867 0.186717 12.36 0.538858 12.9428C0.891 13.5255 1.39439 13.9942 1.99163 14.2953C2.58888 14.5965 3.25593 14.718 3.91672 14.646C4.57752 14.5741 5.20546 14.3115 5.72894 13.8883C5.75252 13.9101 5.77728 13.9304 5.80312 13.9492L10.9631 17.6859C10.8099 18.569 10.9751 19.4795 11.4274 20.2451C11.8798 21.0107 12.5878 21.5782 13.4176 21.8402C14.2473 22.1022 15.1411 22.0404 15.9298 21.6667C16.7184 21.2929 17.3472 20.633 17.6971 19.812C18.047 18.991 18.0936 18.0658 17.8282 17.2116C17.5628 16.3574 17.0038 15.6335 16.257 15.1769C15.5102 14.7203 14.6275 14.5628 13.7759 14.7341C12.9243 14.9053 12.163 15.3936 11.6362 16.1064L6.75002 12.5694C6.9682 12.0933 7.09038 11.5619 7.09038 11.0001C7.09038 10.4382 6.9682 9.90571 6.75002 9.43074L11.6372 5.89266C12.0033 6.38825 12.4856 6.77908 13.0384 7.02818C13.5913 7.27729 14.1964 7.37645 14.7966 7.31628C15.3969 7.25611 15.9723 7.0386 16.4686 6.68432C16.9649 6.33004 17.3656 5.8507 17.6328 5.29162C17.9001 4.73254 18.025 4.11221 17.9958 3.48928C17.9667 2.86634 17.7843 2.2614 17.4661 1.73166C17.1479 1.20191 16.7042 0.764872 16.1771 0.461862C15.6501 0.158851 15.057 -0.000113 14.4539 2.06332e-07ZM12.5449 3.66669C12.5449 3.14306 12.746 2.64087 13.104 2.2706C13.462 1.90033 13.9476 1.69232 14.4539 1.69232C14.9603 1.69232 15.4458 1.90033 15.8039 2.2706C16.1619 2.64087 16.363 3.14306 16.363 3.66669C16.363 4.19033 16.1619 4.69252 15.8039 5.06279C15.4458 5.43305 14.9603 5.64107 14.4539 5.64107C13.9476 5.64107 13.462 5.43305 13.104 5.06279C12.746 4.69252 12.5449 4.19033 12.5449 3.66669ZM3.54496 9.02571C3.03865 9.02571 2.55307 9.23372 2.19505 9.60399C1.83703 9.97425 1.63589 10.4764 1.63589 11.0001C1.63589 11.5237 1.83703 12.0259 2.19505 12.3962C2.55307 12.7664 3.03865 12.9745 3.54496 12.9745C4.05128 12.9745 4.53686 12.7664 4.89488 12.3962C5.2529 12.0259 5.45403 11.5237 5.45403 11.0001C5.45403 10.4764 5.2529 9.97425 4.89488 9.60399C4.53686 9.23372 4.05128 9.02571 3.54496 9.02571ZM14.4539 16.3591C13.9476 16.3591 13.462 16.5671 13.104 16.9374C12.746 17.3076 12.5449 17.8098 12.5449 18.3335C12.5449 18.8571 12.746 19.3593 13.104 19.7296C13.462 20.0998 13.9476 20.3078 14.4539 20.3078C14.9603 20.3078 15.4458 20.0998 15.8039 19.7296C16.1619 19.3593 16.363 18.8571 16.363 18.3335C16.363 17.8098 16.1619 17.3076 15.8039 16.9374C15.4458 16.5671 14.9603 16.3591 14.4539 16.3591Z" fill="#A3A3A3"/>
<path fill-rule="evenodd" clip-rule="evenodd" d="M212.517 9.67316C211.351 10.2061 210.497 11.4746 210.497 12.987C210.497 14.5317 211.129 15.7228 212.035 16.7437C212.782 17.5847 213.687 18.2822 214.568 18.9614C214.778 19.1231 214.986 19.2841 215.191 19.4451C215.56 19.7369 215.89 19.9922 216.209 20.1785C216.527 20.3641 216.783 20.4492 217 20.4492C217.218 20.4492 217.474 20.3648 217.792 20.1785C218.111 19.9922 218.44 19.7369 218.81 19.4451C219.014 19.2834 219.223 19.1231 219.433 18.9614C220.314 18.2822 221.219 17.5847 221.966 16.7437C222.872 15.7228 223.504 14.5317 223.504 12.987C223.504 11.4753 222.65 10.2061 221.484 9.67316C220.447 9.19996 219.086 9.27379 217.754 10.4382L218.779 11.4633C218.83 11.5119 218.87 11.5701 218.898 11.6344C218.925 11.6987 218.94 11.7679 218.941 11.838C218.941 11.908 218.928 11.9774 218.901 12.0422C218.875 12.1071 218.836 12.166 218.786 12.2155C218.737 12.265 218.678 12.3042 218.613 12.3308C218.548 12.3573 218.479 12.3707 218.409 12.3701C218.339 12.3695 218.27 12.355 218.205 12.3274C218.141 12.2998 218.083 12.2597 218.034 12.2093L216.628 10.8038L216.621 10.7967C215.174 9.29207 213.651 9.15496 212.517 9.67316ZM217 9.69847C215.375 8.24301 213.554 8.03911 212.079 8.7134C210.522 9.42707 209.442 11.0808 209.442 12.9877C209.442 14.8615 210.222 16.2916 211.247 17.4448C212.067 18.3679 213.07 19.1407 213.957 19.8227C214.158 19.9774 214.353 20.1279 214.537 20.2741C214.898 20.5582 215.285 20.8605 215.677 21.0897C216.068 21.3182 216.515 21.5046 217 21.5046C217.486 21.5046 217.933 21.3182 218.324 21.0897C218.717 20.8605 219.103 20.5582 219.464 20.2741C219.656 20.1224 219.85 19.9719 220.044 19.8227C220.93 19.1407 221.934 18.3672 222.754 17.4448C223.779 16.2916 224.559 14.8615 224.559 12.9877C224.559 11.0808 223.48 9.42707 221.922 8.7148C220.447 8.03981 218.626 8.24371 217 9.69847Z" fill="white"/>
</svg>
