<svg width="28" height="28" viewBox="0 0 28 28" fill="none" xmlns="http://www.w3.org/2000/svg">
<path d="M28 15.8853V12.1147C26.0738 11.4298 24.857 11.2373 24.2445 9.75917C23.6297 8.27633 24.3612 7.26833 25.2327 5.43317L22.5668 2.76733C20.7457 3.633 19.7283 4.3715 18.242 3.7555C16.7615 3.14183 16.5667 1.91683 15.8853 0H12.1147C11.4357 1.9075 11.2408 3.14067 9.75917 3.7555C8.27633 4.3715 7.27067 3.64117 5.43317 2.76733L2.76733 5.43317C3.6365 7.2625 4.3715 8.27283 3.7555 9.758C3.14067 11.2408 1.9075 11.4357 0 12.1147V15.8853C1.904 16.562 3.14067 16.7592 3.7555 18.2408C4.37383 19.7365 3.6225 20.7678 2.76733 22.5657L5.43317 25.2327C7.2555 24.3658 8.27283 23.6285 9.758 24.2445C11.2397 24.8582 11.4345 26.0867 12.1147 28H15.8853C16.5643 26.0913 16.7603 24.8617 18.2502 24.241H18.2513C19.7237 23.6297 20.7247 24.3588 22.5657 25.2338L25.2315 22.5668C24.3635 20.7433 23.6273 19.7283 24.2422 18.2432C24.857 16.7603 26.0948 16.5632 28 15.8853ZM14 18.6667C11.4228 18.6667 9.33333 16.5772 9.33333 14C9.33333 11.4228 11.4228 9.33333 14 9.33333C16.5772 9.33333 18.6667 11.4228 18.6667 14C18.6667 16.5772 16.5772 18.6667 14 18.6667Z" fill="#EAE8E8"/>
</svg>
