<svg width="40" height="40" viewBox="0 0 40 40" fill="none" xmlns="http://www.w3.org/2000/svg">
<rect x="0.483871" y="0.483871" width="39.0323" height="39.0323" rx="19.5161" stroke="#171621" stroke-opacity="0.12" stroke-width="0.967742"/>
<path fill-rule="evenodd" clip-rule="evenodd" d="M24.5001 10.25C24.0246 10.2498 23.5548 10.354 23.124 10.5552C22.6932 10.7564 22.3117 11.0496 22.0065 11.4143C21.7014 11.7789 21.48 12.2061 21.3579 12.6657C21.2358 13.1252 21.2161 13.606 21.3001 14.074L16.5701 17.386C16.5464 17.4024 16.5237 17.4201 16.5021 17.439C16.0222 17.0639 15.4466 16.8312 14.8409 16.7674C14.2351 16.7036 13.6236 16.8113 13.0762 17.0782C12.5287 17.3452 12.0672 17.7606 11.7444 18.2771C11.4216 18.7936 11.2505 19.3904 11.2505 19.9995C11.2505 20.6086 11.4216 21.2054 11.7444 21.7219C12.0672 22.2384 12.5287 22.6538 13.0762 22.9208C13.6236 23.1877 14.2351 23.2954 14.8409 23.2316C15.4466 23.1678 16.0222 22.9351 16.5021 22.56C16.5237 22.5793 16.5464 22.5973 16.5701 22.614L21.3001 25.926C21.1597 26.7088 21.3111 27.5158 21.7258 28.1944C22.1404 28.873 22.7895 29.376 23.5501 29.6082C24.3106 29.8404 25.13 29.7857 25.8529 29.4544C26.5759 29.1231 27.1523 28.5382 27.473 27.8105C27.7937 27.0828 27.8365 26.2628 27.5932 25.5057C27.3499 24.7485 26.8375 24.1069 26.1529 23.7022C25.4684 23.2975 24.6592 23.1578 23.8785 23.3096C23.0979 23.4615 22.4001 23.8942 21.9171 24.526L17.4381 21.391C17.6381 20.969 17.7501 20.498 17.7501 20C17.7501 19.502 17.6381 19.03 17.4381 18.609L21.9181 15.473C22.2537 15.9123 22.6957 16.2587 23.2025 16.4795C23.7093 16.7003 24.264 16.7882 24.8142 16.7348C25.3644 16.6815 25.8919 16.4887 26.3469 16.1747C26.8018 15.8607 27.1691 15.4358 27.4141 14.9403C27.6591 14.4447 27.7736 13.8949 27.7469 13.3427C27.7201 12.7906 27.553 12.2544 27.2612 11.7849C26.9695 11.3153 26.5629 10.9279 26.0797 10.6594C25.5965 10.3908 25.0529 10.2499 24.5001 10.25ZM22.7501 13.5C22.7501 13.0359 22.9344 12.5908 23.2626 12.2626C23.5908 11.9344 24.0359 11.75 24.5001 11.75C24.9642 11.75 25.4093 11.9344 25.7375 12.2626C26.0657 12.5908 26.2501 13.0359 26.2501 13.5C26.2501 13.9641 26.0657 14.4092 25.7375 14.7374C25.4093 15.0656 24.9642 15.25 24.5001 15.25C24.0359 15.25 23.5908 15.0656 23.2626 14.7374C22.9344 14.4092 22.7501 13.9641 22.7501 13.5ZM14.5001 18.25C14.0359 18.25 13.5908 18.4344 13.2626 18.7626C12.9344 19.0908 12.7501 19.5359 12.7501 20C12.7501 20.4641 12.9344 20.9092 13.2626 21.2374C13.5908 21.5656 14.0359 21.75 14.5001 21.75C14.9642 21.75 15.4093 21.5656 15.7375 21.2374C16.0657 20.9092 16.2501 20.4641 16.2501 20C16.2501 19.5359 16.0657 19.0908 15.7375 18.7626C15.4093 18.4344 14.9642 18.25 14.5001 18.25ZM24.5001 24.75C24.0359 24.75 23.5908 24.9344 23.2626 25.2626C22.9344 25.5908 22.7501 26.0359 22.7501 26.5C22.7501 26.9641 22.9344 27.4092 23.2626 27.7374C23.5908 28.0656 24.0359 28.25 24.5001 28.25C24.9642 28.25 25.4093 28.0656 25.7375 27.7374C26.0657 27.4092 26.2501 26.9641 26.2501 26.5C26.2501 26.0359 26.0657 25.5908 25.7375 25.2626C25.4093 24.9344 24.9642 24.75 24.5001 24.75Z" fill="#262626"/>
</svg>
