<svg width="49" height="48" viewBox="0 0 49 48" fill="none" xmlns="http://www.w3.org/2000/svg">
<circle cx="24.5" cy="24" r="24" fill="#15AB90"/>
<path d="M23.15 31.11V16.89C23.15 15.54 22.58 15 21.14 15H17.51C16.07 15 15.5 15.54 15.5 16.89V31.11C15.5 32.46 16.07 33 17.51 33H21.14C22.58 33 23.15 32.46 23.15 31.11Z" fill="white"/>
<path d="M33.5001 31.11V16.89C33.5001 15.54 32.9301 15 31.4901 15H27.8601C26.4301 15 25.8501 15.54 25.8501 16.89V31.11C25.8501 32.46 26.4201 33 27.8601 33H31.4901C32.9301 33 33.5001 32.46 33.5001 31.11Z" fill="white"/>
</svg>
