<svg width="24" height="24" viewBox="0 0 24 24" fill="none" xmlns="http://www.w3.org/2000/svg">
<path d="M9.63596 1.29955L9.63634 1.29924C10.9476 0.228015 13.0432 0.234936 14.3726 1.31206C14.3728 1.31219 14.373 1.31232 14.3731 1.31245L22.0963 7.59691C22.0968 7.59738 22.0974 7.59785 22.098 7.59832C22.5584 7.98074 22.953 8.57535 23.2068 9.25085C23.4603 9.92576 23.557 10.6384 23.467 11.2383L21.9815 20.2799C21.9815 20.2804 21.9814 20.2808 21.9813 20.2813C21.6779 22.0536 19.9913 23.5 18.2508 23.5H5.74533C3.98003 23.5 2.33003 22.0884 2.02676 20.2938C2.0267 20.2935 2.02665 20.2932 2.02659 20.2928L0.540442 11.247L0.540254 11.2458C0.439531 10.6414 0.530565 9.92704 0.78363 9.25204C1.03677 8.57684 1.43636 7.98271 1.90762 7.60025L1.90849 7.59955L9.63596 1.29955ZM11.9981 20.6C12.7659 20.6 13.3829 19.9601 13.3829 19.2V15.6C13.3829 14.8399 12.7659 14.2 11.9981 14.2C11.2303 14.2 10.6133 14.8399 10.6133 15.6V19.2C10.6133 19.9601 11.2303 20.6 11.9981 20.6Z" stroke="#B7B7B7"/>
</svg>
