<svg width="24" height="32" viewBox="0 0 24 32" fill="none" xmlns="http://www.w3.org/2000/svg">
<path d="M12.1771 10.1188C12.0589 10.1102 11.9335 10.1106 11.8149 10.1189C9.85913 10.032 8.31006 8.42302 8.31006 6.44C8.31006 4.40311 9.95537 2.75 12.0001 2.75C14.0353 2.75 15.6892 4.40339 15.6901 6.43847C15.681 8.42308 14.1309 10.031 12.1771 10.1188Z" fill="#15AB90" stroke="#15AB90" stroke-width="1.5" stroke-linecap="round" stroke-linejoin="round"/>
<path d="M7.57704 19.8067L7.5754 19.8056C6.52198 19.1047 6.09497 18.2544 6.09497 17.4987C6.09497 16.7429 6.52216 15.89 7.5758 15.1842C8.80724 14.3682 10.4715 13.9375 12.1725 13.9375C13.8743 13.9375 15.533 14.3686 16.7534 15.1837L16.7545 15.1844C17.808 15.8853 18.235 16.7356 18.235 17.4913C18.235 18.2474 17.8074 19.1007 16.7528 19.8068C15.527 20.6269 13.8658 21.06 12.165 21.06C10.4641 21.06 8.80283 20.6268 7.57704 19.8067Z" fill="#15AB90" stroke="#15AB90" stroke-width="1.5" stroke-linecap="round" stroke-linejoin="round"/>
<rect x="9" y="29" width="6" height="3" rx="1.5" fill="#15AB90"/>
</svg>
