<svg width="24" height="32" viewBox="0 0 24 32" fill="none" xmlns="http://www.w3.org/2000/svg">
<path d="M22.4154 7.21202L14.688 0.924021C13.1779 -0.299978 10.8183 -0.311978 9.32002 0.912021L1.59255 7.21202C0.483568 8.11201 -0.188899 9.91201 0.0470547 11.328L1.53356 20.376C1.87569 22.404 3.72793 24 5.74533 24H18.2508C20.2447 24 22.1323 22.368 22.4744 20.364L23.9609 11.316C24.1733 9.91201 23.5008 8.11201 22.4154 7.21202ZM12.8829 19.2C12.8829 19.692 12.4818 20.1 11.9981 20.1C11.5144 20.1 11.1133 19.692 11.1133 19.2V15.6C11.1133 15.108 11.5144 14.7 11.9981 14.7C12.4818 14.7 12.8829 15.108 12.8829 15.6V19.2Z" fill="#15AB90"/>
<rect x="9" y="29" width="6" height="3" rx="1.5" fill="#15AB90"/>
</svg>
