<svg width="20" height="27" viewBox="0 0 20 27" fill="none" xmlns="http://www.w3.org/2000/svg">
<rect x="7" y="24" width="6" height="3" rx="1.5" fill="#15AB90"/>
<path d="M6.106 15.247C3.298 13.083 0 10.542 0 6.137C0 1.274 5.5 -2.175 10 2.501L12 4.499C12.1422 4.63148 12.3302 4.7036 12.5245 4.70017C12.7188 4.69674 12.9042 4.61803 13.0416 4.48062C13.179 4.34321 13.2577 4.15782 13.2612 3.96352C13.2646 3.76922 13.1925 3.58117 13.06 3.439L11.13 1.506C15.369 -1.597 20 1.675 20 6.137C20 10.542 16.702 13.083 13.894 15.247C13.602 15.472 13.315 15.692 13.038 15.911C12 16.729 11 17.5 10 17.5C9 17.5 8 16.73 6.962 15.91C6.685 15.692 6.398 15.472 6.106 15.247Z" fill="#15AB90"/>
</svg>
