<svg width="25" height="32" viewBox="0 0 25 32" fill="none" xmlns="http://www.w3.org/2000/svg">
<path d="M22.6665 3.75H2.6665C2.2565 3.75 1.9165 3.41 1.9165 3C1.9165 2.59 2.2565 2.25 2.6665 2.25H22.6665C23.0765 2.25 23.4165 2.59 23.4165 3C23.4165 3.41 23.0765 3.75 22.6665 3.75Z" fill="#15AB90"/>
<path d="M11.6665 9.75H2.6665C2.2565 9.75 1.9165 9.41 1.9165 9C1.9165 8.59 2.2565 8.25 2.6665 8.25H11.6665C12.0765 8.25 12.4165 8.59 12.4165 9C12.4165 9.41 12.0765 9.75 11.6665 9.75Z" fill="#15AB90"/>
<path d="M8.6665 15.75H2.6665C2.2565 15.75 1.9165 15.41 1.9165 15C1.9165 14.59 2.2565 14.25 2.6665 14.25H8.6665C9.0765 14.25 9.4165 14.59 9.4165 15C9.4165 15.41 9.0765 15.75 8.6665 15.75Z" fill="#15AB90"/>
<path d="M6.6665 21.75H2.6665C2.2565 21.75 1.9165 21.41 1.9165 21C1.9165 20.59 2.2565 20.25 2.6665 20.25H6.6665C7.0765 20.25 7.4165 20.59 7.4165 21C7.4165 21.41 7.0765 21.75 6.6665 21.75Z" fill="#15AB90"/>
<path d="M12.5067 22.7501C10.8967 22.7501 9.57666 21.4401 9.57666 19.8201C9.57666 18.2101 10.8867 16.8901 12.5067 16.8901C14.1267 16.8901 15.4367 18.2001 15.4367 19.8201C15.4367 21.4401 14.1267 22.7501 12.5067 22.7501ZM12.5067 18.4001C11.7167 18.4001 11.0767 19.0401 11.0767 19.8301C11.0767 20.6201 11.7167 21.2601 12.5067 21.2601C13.2967 21.2601 13.9367 20.6201 13.9367 19.8301C13.9367 19.0401 13.2967 18.4001 12.5067 18.4001Z" fill="#15AB90"/>
<path d="M14.6865 20.5701C14.2765 20.5701 13.9365 20.2301 13.9365 19.8201V11.0501C13.9365 9.84007 14.6565 8.8901 15.8265 8.5801L20.1765 7.39009C21.1265 7.13009 21.9465 7.23007 22.5265 7.68007C23.1065 8.13007 23.4065 8.86007 23.4065 9.87007V18.3801C23.4065 18.7901 23.0665 19.1301 22.6565 19.1301C22.2465 19.1301 21.9065 18.7901 21.9065 18.3801V9.87007C21.9065 9.37007 21.8065 9.02008 21.6165 8.88008C21.4265 8.73008 21.0365 8.72005 20.5665 8.85005L16.2165 10.0401C15.9265 10.1201 15.4365 10.3601 15.4365 11.0701V19.8401C15.4365 20.2401 15.0965 20.5701 14.6865 20.5701Z" fill="#15AB90"/>
<path d="M20.4866 21.3C18.8766 21.3 17.5566 19.9901 17.5566 18.3701C17.5566 16.7601 18.8666 15.4401 20.4866 15.4401C22.1066 15.4401 23.4166 16.7501 23.4166 18.3701C23.4166 19.9901 22.1066 21.3 20.4866 21.3ZM20.4866 16.9501C19.6966 16.9501 19.0566 17.5901 19.0566 18.3801C19.0566 19.1701 19.6966 19.8101 20.4866 19.8101C21.2766 19.8101 21.9166 19.1701 21.9166 18.3801C21.9166 17.5901 21.2766 16.9501 20.4866 16.9501Z" fill="#15AB90"/>
<path d="M14.6867 14.35C14.3567 14.35 14.0567 14.13 13.9667 13.8C13.8567 13.4 14.0967 12.9901 14.4967 12.8801L22.4767 10.7001C22.8767 10.5901 23.2867 10.83 23.3967 11.23C23.5067 11.63 23.2667 12.0401 22.8667 12.1501L14.8867 14.3301C14.8167 14.3401 14.7467 14.35 14.6867 14.35Z" fill="#15AB90"/>
<rect x="9.9165" y="29" width="6" height="3" rx="1.5" fill="#15AB90"/>
</svg>
