<svg width="22" height="20" viewBox="0 0 22 20" fill="none" xmlns="http://www.w3.org/2000/svg">
<path fill-rule="evenodd" clip-rule="evenodd" d="M4.70798 2.42391C3.04898 3.18192 1.83398 4.98593 1.83398 7.13695C1.83398 9.33396 2.73398 11.028 4.02198 12.48C5.08498 13.676 6.37098 14.668 7.62498 15.634C7.92298 15.864 8.21898 16.093 8.50998 16.322C9.03598 16.737 9.50498 17.1 9.95798 17.365C10.41 17.629 10.774 17.75 11.084 17.75C11.394 17.75 11.758 17.63 12.21 17.365C12.663 17.1 13.132 16.737 13.658 16.322C13.948 16.092 14.245 15.864 14.543 15.634C15.797 14.668 17.083 13.676 18.146 12.48C19.435 11.028 20.334 9.33396 20.334 7.13695C20.334 4.98693 19.119 3.18192 17.46 2.42391C15.986 1.75091 14.05 1.85591 12.156 3.51192L13.614 4.96993C13.6856 5.03908 13.7428 5.12182 13.7822 5.2133C13.8215 5.30479 13.8423 5.40319 13.8432 5.50278C13.8441 5.60236 13.8252 5.70113 13.7875 5.79332C13.7498 5.88551 13.6942 5.96927 13.6238 6.03973C13.5534 6.11018 13.4697 6.16591 13.3775 6.20366C13.2854 6.24142 13.1866 6.26044 13.087 6.25962C12.9875 6.2588 12.889 6.23816 12.7975 6.1989C12.706 6.15964 12.6232 6.10254 12.554 6.03094L10.554 4.03192L10.544 4.02192C8.48598 1.88191 6.31998 1.68691 4.70798 2.42391ZM11.084 2.45991C8.77198 0.3899 6.18298 0.0998982 4.08398 1.0589C1.86998 2.07391 0.333984 4.42593 0.333984 7.13795C0.333984 9.80296 1.44398 11.837 2.90098 13.477C4.06698 14.79 5.49398 15.889 6.75498 16.859C7.04098 17.079 7.31798 17.293 7.58098 17.501C8.09398 17.905 8.64398 18.335 9.20098 18.661C9.75798 18.986 10.394 19.251 11.084 19.251C11.774 19.251 12.41 18.986 12.967 18.661C13.525 18.335 14.074 17.905 14.587 17.501C14.8609 17.2852 15.1362 17.0712 15.413 16.859C16.673 15.889 18.101 14.789 19.267 13.477C20.724 11.837 21.834 9.80296 21.834 7.13795C21.834 4.42593 20.299 2.07391 18.084 1.0609C15.985 0.100898 13.396 0.3909 11.084 2.45991Z" fill="#B7B7B7"/>
</svg>
