<svg width="25" height="24" viewBox="0 0 25 24" fill="none" xmlns="http://www.w3.org/2000/svg">
<path d="M22.9165 3.75H2.9165C2.5065 3.75 2.1665 3.41 2.1665 3C2.1665 2.59 2.5065 2.25 2.9165 2.25H22.9165C23.3265 2.25 23.6665 2.59 23.6665 3C23.6665 3.41 23.3265 3.75 22.9165 3.75Z" fill="#B7B7B7"/>
<path d="M11.9165 9.75H2.9165C2.5065 9.75 2.1665 9.41 2.1665 9C2.1665 8.59 2.5065 8.25 2.9165 8.25H11.9165C12.3265 8.25 12.6665 8.59 12.6665 9C12.6665 9.41 12.3265 9.75 11.9165 9.75Z" fill="#B7B7B7"/>
<path d="M8.9165 15.75H2.9165C2.5065 15.75 2.1665 15.41 2.1665 15C2.1665 14.59 2.5065 14.25 2.9165 14.25H8.9165C9.3265 14.25 9.6665 14.59 9.6665 15C9.6665 15.41 9.3265 15.75 8.9165 15.75Z" fill="#B7B7B7"/>
<path d="M6.9165 21.75H2.9165C2.5065 21.75 2.1665 21.41 2.1665 21C2.1665 20.59 2.5065 20.25 2.9165 20.25H6.9165C7.3265 20.25 7.6665 20.59 7.6665 21C7.6665 21.41 7.3265 21.75 6.9165 21.75Z" fill="#B7B7B7"/>
<path d="M12.7567 22.7501C11.1467 22.7501 9.82666 21.4401 9.82666 19.8201C9.82666 18.2101 11.1367 16.8901 12.7567 16.8901C14.3767 16.8901 15.6867 18.2001 15.6867 19.8201C15.6867 21.4401 14.3767 22.7501 12.7567 22.7501ZM12.7567 18.4001C11.9667 18.4001 11.3267 19.0401 11.3267 19.8301C11.3267 20.6201 11.9667 21.2601 12.7567 21.2601C13.5467 21.2601 14.1867 20.6201 14.1867 19.8301C14.1867 19.0401 13.5467 18.4001 12.7567 18.4001Z" fill="#B7B7B7"/>
<path d="M14.9365 20.5701C14.5265 20.5701 14.1865 20.2301 14.1865 19.8201V11.0501C14.1865 9.84007 14.9065 8.8901 16.0765 8.5801L20.4265 7.39009C21.3765 7.13009 22.1965 7.23007 22.7765 7.68007C23.3565 8.13007 23.6565 8.86007 23.6565 9.87007V18.3801C23.6565 18.7901 23.3165 19.1301 22.9065 19.1301C22.4965 19.1301 22.1565 18.7901 22.1565 18.3801V9.87007C22.1565 9.37007 22.0565 9.02008 21.8665 8.88008C21.6765 8.73008 21.2865 8.72005 20.8165 8.85005L16.4665 10.0401C16.1765 10.1201 15.6865 10.3601 15.6865 11.0701V19.8401C15.6865 20.2401 15.3465 20.5701 14.9365 20.5701Z" fill="#B7B7B7"/>
<path d="M20.7366 21.3C19.1266 21.3 17.8066 19.9901 17.8066 18.3701C17.8066 16.7601 19.1166 15.4401 20.7366 15.4401C22.3566 15.4401 23.6666 16.7501 23.6666 18.3701C23.6666 19.9901 22.3566 21.3 20.7366 21.3ZM20.7366 16.9501C19.9466 16.9501 19.3066 17.5901 19.3066 18.3801C19.3066 19.1701 19.9466 19.8101 20.7366 19.8101C21.5266 19.8101 22.1666 19.1701 22.1666 18.3801C22.1666 17.5901 21.5266 16.9501 20.7366 16.9501Z" fill="#B7B7B7"/>
<path d="M14.9367 14.35C14.6067 14.35 14.3067 14.13 14.2167 13.8C14.1067 13.4 14.3467 12.9901 14.7467 12.8801L22.7267 10.7001C23.1267 10.5901 23.5367 10.83 23.6467 11.23C23.7567 11.63 23.5167 12.0401 23.1167 12.1501L15.1367 14.3301C15.0667 14.3401 14.9967 14.35 14.9367 14.35Z" fill="#B7B7B7"/>
</svg>
